<?xml version="1.0" encoding="utf-8"?>
<!-- Generator: Adobe Illustrator 24.0.1, SVG Export Plug-In . SVG Version: 6.00 Build 0)  -->
<svg version="1.1" id="Layer_1" xmlns="http://www.w3.org/2000/svg" xmlns:xlink="http://www.w3.org/1999/xlink" x="0px" y="0px"
	 viewBox="0 0 418.24 132.43" style="enable-background:new 0 0 418.24 132.43;" xml:space="preserve">
<style type="text/css">
	.st0{fill:none;}
	.st1{fill:#010202;}
	.st2{font-family:'Montserrat-Medium';}
	.st3{font-size:21.0529px;}
	.st4{font-size:23.7989px;}
</style>
<rect x="146.99" y="59.48" class="st0" width="207.07" height="24.98"/>
<text transform="matrix(1 0 0 1 146.986 77.1369)"><tspan x="0" y="0" class="st1 st2 st3">Skipper</tspan><tspan x="96.76" y="0" class="st1 st2 st4"> </tspan><tspan x="103.52" y="0" class="st1 st2 st3">Agency</tspan></text>
<g>
	<path d="M107.24,72.46"/>
	<path d="M100.28,69.78"/>
	<path d="M112.76,73.65c-4.31-0.7-7.48-1.99-10.67-3.67l2.99-3.5c2.42,1.18,6.36,2.49,9.64,2.86c2.19,0.25,7.22,1.26,10.81-1.99
		l5.36,1.56c-1.24,1.52-3.95,3.56-6.14,4.33C120.16,74.86,115.63,74.12,112.76,73.65z"/>
	<path d="M112.11,67.63l4.49,0.74c0-2.19-0.91-4.49-2.5-6.18c-2.15-2.28-6.06-3.39-9.81-2.04c-2.99,1.08-5.06,3.54-6.56,5.14
		c-4.25,4.57-5.89,8.43-9.79,9.07c-3.53,0.58-5.65-2.34-5.65-2.34l-5.23-0.14c1.47,3.47,4.12,5.55,6.7,6.29
		c3.97,1.12,8.41,0.6,12.16-3.43c5.84-6.92,8.82-11.86,13.7-10C111.58,65.5,112.11,67.63,112.11,67.63z"/>
	<path d="M98.1,62.42l-3.08,3.61c0,0-2.99-1.78-7.62-2.13c-3.09-0.24-4.26,0.82-4.26,0.82l-5.87-0.17c0,0,0.88-2.77,4.99-4.32
		C88.22,57.99,94.16,60.38,98.1,62.42z"/>
	<path d="M65.4,73.66c1.52-0.88,4.02-1.93,6.81-2.54c4.12-0.89,6.81-0.98,8.85-0.86c3.65,0.22,6.58,0.99,9,1.73l3.08-3.64
		c-7.51-3.04-15.24-2.9-21.95-1.4c-3.14,0.7-6.84,2.01-10.31,4.25"/>
	<path d="M99.66,72.76c1.41,0.79,2.47,1.56,4.84,2.05c1.54,0.32,3.16,0.27,4.92-0.46l5.11,1.04c-0.72,1-3.28,3.52-7.87,3.78
		c-5.12,0.28-8.32-1.77-10.01-3L99.66,72.76z"/>
</g>
</svg>
